# xmcd CD database file
#
# Track frame offsets:
#	150
#	17471
#	35705
#	50322
#	68176
#	85444
#	113695
#	131270
#	152472
#	169863
#	185559
#	211684
#	234324
#	260222
#	283209
#	304150
#
# Disc length: 4385 seconds
#
# Revision: 0
# Processed by: cddbd v1.5PL3 Copyright (c) Steve Scherf et al.
# Submitted via: CDex 1.40Release
#
DISCID=d9111f10
DTITLE=Elton John - Greatest Hits 1970-2002 CD 1
DYEAR=1900
DGENRE=Blues
TTITLE0=Sorry seems to be the hardest word
TTITLE1=your song
TTITLE2=Googbye yellow brick road
TTITLE3=Tonight
TTITLE4=Candle in the wind
TTITLE5=Tiny dancer
TTITLE6=Daniel
TTITLE7=Rocket man
TTITLE8=Little Jeannie
TTITLE9=Blue eyes
TTITLE10=Don't let the sun down on me
TTITLE11=You gotta love someone
TTITLE12=Nikita
TTITLE13=Sacrifice
TTITLE14=Word in Spanish
TTITLE15=Whispers
EXTD=ID3G: 0
EXTT0=
EXTT1=
EXTT2=
EXTT3=
EXTT4=
EXTT5=
EXTT6=
EXTT7=
EXTT8=
EXTT9=
EXTT10=
EXTT11=
EXTT12=
EXTT13=
EXTT14=
EXTT15=
PLAYORDER=
